<svg width="73" height="73" viewBox="0 0 73 73" fill="none" xmlns="http://www.w3.org/2000/svg">
    <path d="M36.5 4.5625C30.1834 4.5625 24.0086 6.4356 18.7565 9.94494C13.5044 13.4543 9.41089 18.4422 6.99361 24.278C4.57634 30.1139 3.94387 36.5354 5.17618 42.7307C6.4085 48.926 9.45025 54.6167 13.9168 59.0832C18.3833 63.5498 24.0741 66.5915 30.2693 67.8238C36.4646 69.0561 42.8862 68.4237 48.722 66.0064C54.5578 63.5891 59.5457 59.4956 63.0551 54.2435C66.5644 48.9914 68.4375 42.8166 68.4375 36.5C68.4375 28.0296 65.0727 19.9062 59.0832 13.9168C53.0938 7.92733 44.9704 4.5625 36.5 4.5625ZM50.1875 38.7812H38.7813V50.1875C38.7813 50.7925 38.5409 51.3728 38.1131 51.8006C37.6853 52.2284 37.105 52.4688 36.5 52.4688C35.895 52.4688 35.3147 52.2284 34.8869 51.8006C34.4591 51.3728 34.2188 50.7925 34.2188 50.1875V38.7812H22.8125C22.2075 38.7812 21.6272 38.5409 21.1994 38.1131C20.7716 37.6853 20.5313 37.105 20.5313 36.5C20.5313 35.895 20.7716 35.3147 21.1994 34.8869C21.6272 34.4591 22.2075 34.2188 22.8125 34.2188H34.2188V22.8125C34.2188 22.2075 34.4591 21.6272 34.8869 21.1994C35.3147 20.7716 35.895 20.5312 36.5 20.5312C37.105 20.5312 37.6853 20.7716 38.1131 21.1994C38.5409 21.6272 38.7813 22.2075 38.7813 22.8125V34.2188H50.1875C50.7925 34.2188 51.3728 34.4591 51.8006 34.8869C52.2284 35.3147 52.4688 35.895 52.4688 36.5C52.4688 37.105 52.2284 37.6853 51.8006 38.1131C51.3728 38.5409 50.7925 38.7812 50.1875 38.7812Z" fill="black"/>
</svg>