<?xml version="1.0" encoding="UTF-8"?>
<svg width="452px" height="345px" viewBox="0 0 452 345" version="1.1" xmlns="http://www.w3.org/2000/svg" xmlns:xlink="http://www.w3.org/1999/xlink">
    <!-- Generator: Sketch 59.1 (86144) - https://sketch.com -->
    <title>cart</title>
    <desc>Created with Sketch.</desc>
    <g id="extra" stroke="none" stroke-width="1" fill="none" fill-rule="evenodd">
        <g id="cart" transform="translate(2.000000, 2.000000)" fill="#000000" fill-rule="nonzero" stroke="#000000" stroke-width="3">
            <path d="M437.333333,42.6666667 L102.613333,42.6666667 L95.7866667,8.53333333 C94.8266667,3.62666667 90.4533333,0 85.3333333,0 L10.6666667,0 C4.8,0 0,4.8 0,10.6666667 C0,16.5333333 4.8,21.3333333 10.6666667,21.3333333 L76.5866667,21.3333333 L115.626667,216.746667 C109.653333,219.093333 104.106667,222.72 99.4133333,227.413333 C90.3466667,236.373333 85.3333333,248.426667 85.3333333,261.333333 C85.3333333,286.4 104.746667,306.88 129.386667,308.906667 C133.973333,327.466667 150.72,341.333333 170.666667,341.333333 C190.506667,341.333333 207.04,327.68 211.84,309.333333 L300.16,309.333333 C304.96,327.68 321.493333,341.333333 341.333333,341.333333 C361.173333,341.333333 377.706667,327.68 382.506667,309.333333 L384,309.333333 C389.866667,309.333333 394.666667,304.533333 394.666667,298.666667 C394.666667,292.8 389.866667,288 384,288 L382.506667,288 C377.706667,269.653333 361.173333,256 341.333333,256 C321.493333,256 304.96,269.653333 300.16,288 L211.84,288 C207.04,269.653333 190.506667,256 170.666667,256 C150.933333,256 134.506667,269.44 129.6,287.573333 C116.693333,285.76 106.666667,274.773333 106.666667,261.333333 C106.666667,254.186667 109.44,247.573333 114.56,242.453333 C119.573333,237.44 126.186667,234.666667 133.333333,234.666667 L341.333333,234.666667 L373.333333,234.666667 C377.813333,234.666667 381.76,231.893333 383.36,227.733333 L447.36,57.0666667 C448.64,53.76 448.106667,50.1333333 446.186667,47.2533333 C444.053333,44.3733333 440.853333,42.6666667 437.333333,42.6666667 Z M341.333333,277.333333 C353.066667,277.333333 362.666667,286.933333 362.666667,298.666667 C362.666667,310.4 353.066667,320 341.333333,320 C329.6,320 320,310.4 320,298.666667 C320,286.933333 329.6,277.333333 341.333333,277.333333 Z M170.666667,277.333333 C182.4,277.333333 192,286.933333 192,298.666667 C192,310.4 182.4,320 170.666667,320 C158.933333,320 149.333333,310.4 149.333333,298.666667 C149.333333,286.933333 158.933333,277.333333 170.666667,277.333333 Z M365.973333,213.333333 L341.333333,213.333333 L136.853333,213.333333 L108.8,64 L421.866667,64 L365.973333,213.333333 Z" id="Shape"></path>
        </g>
    </g>
</svg>