<svg width="72" height="72" viewBox="0 0 72 72" fill="none" xmlns="http://www.w3.org/2000/svg">
  <path d="M66 18H18.93L17.97 13.2C17.835 12.51 17.22 12 16.5 12H6C5.175 12 4.5 12.675 4.5 13.5C4.5 14.325 5.175 15 6 15H15.27L20.76 42.48C19.92 42.81 19.14 43.32 18.48 43.98C17.205 45.24 16.5 46.935 16.5 48.75C16.5 52.275 19.23 55.155 22.695 55.44C23.34 58.05 25.695 60 28.5 60C31.29 60 33.615 58.08 34.29 55.5H46.71C47.385 58.08 49.71 60 52.5 60C55.29 60 57.615 58.08 58.29 55.5H58.5C59.325 55.5 60 54.825 60 54C60 53.175 59.325 52.5 58.5 52.5H58.29C57.615 49.92 55.29 48 52.5 48C49.71 48 47.385 49.92 46.71 52.5H34.29C33.615 49.92 31.29 48 28.5 48C25.725 48 23.415 49.89 22.725 52.44C20.91 52.185 19.5 50.64 19.5 48.75C19.5 47.745 19.89 46.815 20.61 46.095C21.315 45.39 22.245 45 23.25 45H52.5H57C57.63 45 58.185 44.61 58.41 44.025L67.41 20.025C67.59 19.56 67.515 19.05 67.245 18.645C66.945 18.24 66.495 18 66 18ZM52.5 51C54.15 51 55.5 52.35 55.5 54C55.5 55.65 54.15 57 52.5 57C50.85 57 49.5 55.65 49.5 54C49.5 52.35 50.85 51 52.5 51ZM28.5 51C30.15 51 31.5 52.35 31.5 54C31.5 55.65 30.15 57 28.5 57C26.85 57 25.5 55.65 25.5 54C25.5 52.35 26.85 51 28.5 51ZM55.965 42H52.5H23.745L19.8 21H63.825L55.965 42Z" fill="black"/>
</svg>