<svg width="112" height="66" viewBox="0 0 112 66" fill="none" xmlns="http://www.w3.org/2000/svg">
    <g clip-path="url(#clip0)">
        <path fill-rule="evenodd" clip-rule="evenodd" d="M60.6568 29C58.7445 26.6802 57.8161 24.3958 57.7202 22.1467C57.5235 17.4364 60.3137 13.9188 64.4561 11.3867C68.8154 8.72325 73.2959 8.06117 77.6502 6.07494C79.8249 5.08435 82.4234 3.46201 86.7424 0.00505403C88.1501 3.75009 83.6595 9.76943 76.3687 12.9535C78.6291 13.0394 81.0611 12.347 83.7201 10.6286C83.5384 15.3895 79.7997 18.3208 71.4896 19.4529C73.2354 20.0392 75.3242 20.0695 77.9883 19.3165C75.4302 27.8881 64.8395 21.7424 60.6568 29ZM51.3426 29C53.2549 26.6802 54.1833 24.3958 54.2792 22.1467C54.4759 17.4364 51.6857 13.9188 47.5433 11.3867C43.1839 8.72325 38.7035 8.06117 34.3491 6.07494C32.1745 5.0793 29.576 3.45695 25.257 0C23.8493 3.74503 28.3399 9.76438 35.6307 12.9484C33.3703 13.0343 30.9383 12.3419 28.2793 10.6236C28.461 15.3845 32.1997 18.3158 40.5098 19.4479C38.764 20.0342 36.6752 20.0645 34.0111 19.3114C36.5692 27.8881 47.1599 21.7424 51.3426 29Z" fill="#100F0F"/>
    </g>
    <path d="M13.7109 60V52.8223C13.7109 52.7311 13.7109 52.5358 13.7109 52.2363C13.7174 51.9303 13.7207 51.582 13.7207 51.1914C13.7272 50.8008 13.7305 50.3939 13.7305 49.9707C13.737 49.541 13.7435 49.1536 13.75 48.8086L13.5156 48.7695L9.48242 60H7.7832L3.88672 48.877L3.64258 48.916C3.64909 49.2611 3.6556 49.6452 3.66211 50.0684C3.66862 50.485 3.67513 50.8887 3.68164 51.2793C3.68815 51.6634 3.69141 52.0052 3.69141 52.3047C3.69792 52.5977 3.70117 52.793 3.70117 52.8906V60H1.85547V46.2109H4.93164L8.68164 57.5391L12.6562 46.2109H15.6152V60H13.7109Z" fill="black"/>
    <path d="M29.8438 46.2109V54.8828C29.8438 55.6901 29.7135 56.4258 29.4531 57.0898C29.1992 57.7474 28.8379 58.3105 28.3691 58.7793C27.9004 59.248 27.3372 59.6126 26.6797 59.873C26.0286 60.127 25.3092 60.2539 24.5215 60.2539C23.7337 60.2539 23.0111 60.14 22.3535 59.9121C21.7025 59.6777 21.1393 59.3359 20.6641 58.8867C20.1953 58.431 19.8307 57.8646 19.5703 57.1875C19.3099 56.5039 19.1797 55.7129 19.1797 54.8145V46.2109H21.0938V54.9316C21.0938 55.6543 21.1947 56.25 21.3965 56.7188C21.6048 57.1875 21.8717 57.5553 22.1973 57.8223C22.5293 58.0892 22.9004 58.2747 23.3105 58.3789C23.7272 58.4831 24.1439 58.5352 24.5605 58.5352C25.0553 58.5352 25.4818 58.4798 25.8398 58.3691C26.1979 58.252 26.5039 58.099 26.7578 57.9102C27.0117 57.7214 27.2168 57.5033 27.373 57.2559C27.5293 57.002 27.6497 56.7415 27.7344 56.4746C27.8255 56.2012 27.8841 55.9277 27.9102 55.6543C27.9427 55.3809 27.959 55.1237 27.959 54.8828V46.2109H29.8438Z" fill="black"/>
    <path d="M43.7109 60H41.2109L35.8887 53.1055L35.3418 53.7891V60H33.4277V46.2109H35.3418V52.4902L36.3867 51.25L40.8203 46.2109H43.2812L37.6758 52.334L43.7109 60Z" fill="black"/>
    <path d="M50.1172 60H48.2129V47.9199H43.9355V46.2109H54.3945V47.9199H50.1172V60Z" fill="black"/>
    <path d="M56.5918 60V46.2109H58.5059V60H56.5918Z" fill="black"/>
    <path d="M76.8555 59.0918C76.0742 59.4889 75.332 59.7819 74.6289 59.9707C73.9258 60.1595 73.2617 60.2539 72.6367 60.2539C71.9466 60.2539 71.3151 60.1628 70.7422 59.9805C70.1758 59.7917 69.668 59.5345 69.2188 59.209C68.7695 58.8835 68.3757 58.4993 68.0371 58.0566C67.6986 57.6074 67.4186 57.1224 67.1973 56.6016C66.9759 56.0807 66.8099 55.5339 66.6992 54.9609C66.5885 54.3815 66.5332 53.7988 66.5332 53.2129C66.5332 52.6074 66.5885 52.0085 66.6992 51.416C66.8164 50.8171 66.9889 50.2474 67.2168 49.707C67.4447 49.1667 67.7279 48.6654 68.0664 48.2031C68.4115 47.7409 68.8086 47.3405 69.2578 47.002C69.707 46.6634 70.2083 46.3997 70.7617 46.2109C71.3216 46.0156 71.9336 45.918 72.5977 45.918C73.0469 45.918 73.4798 45.9701 73.8965 46.0742C74.3197 46.1784 74.7135 46.3444 75.0781 46.5723C75.4427 46.8001 75.7682 47.1029 76.0547 47.4805C76.3477 47.8516 76.582 48.304 76.7578 48.8379L75.0488 49.248C74.9512 48.929 74.8177 48.6654 74.6484 48.457C74.4857 48.2487 74.3001 48.0827 74.0918 47.959C73.8835 47.8353 73.6523 47.7474 73.3984 47.6953C73.151 47.6432 72.8939 47.6172 72.627 47.6172C71.9694 47.6172 71.3867 47.7702 70.8789 48.0762C70.3776 48.3822 69.9544 48.7923 69.6094 49.3066C69.2643 49.821 69.0039 50.4167 68.8281 51.0938C68.6523 51.7643 68.5645 52.4642 68.5645 53.1934C68.5645 53.8639 68.6491 54.5215 68.8184 55.166C68.9876 55.804 69.248 56.3737 69.5996 56.875C69.9512 57.3763 70.3939 57.7799 70.9277 58.0859C71.4616 58.3919 72.0931 58.5449 72.8223 58.5449C73.3105 58.5449 73.8346 58.4668 74.3945 58.3105C74.9544 58.1478 75.5599 57.9069 76.2109 57.5879L76.8555 59.0918Z" fill="black"/>
    <path d="M77.7637 59.375L82.9785 46.2109H84.8633L90.0098 59.4238V60H88.1641L86.6797 56.1328H80.9863L79.4824 60H77.7637V59.375ZM82.9199 50.9375L81.6211 54.4531H86.0645L84.7949 50.9375L83.8672 48.3008L82.9199 50.9375Z" fill="black"/>
    <path d="M94.0527 60H92.0996V46.2109H99.8633V47.9199H94.0527V52.2949H99.5117V54.0039H94.0527V60Z" fill="black"/>
    <path d="M110.674 60H102.598V46.2109H110.586V47.9199H104.512V52.0117H110.244V53.7207H104.512V58.252H110.674V60Z" fill="black"/>
    <defs>
        <clipPath id="clip0">
            <rect width="62" height="29" fill="white" transform="translate(25)"/>
        </clipPath>
    </defs>
</svg>