<svg width="135" height="135" viewBox="0 0 135 135" fill="none" xmlns="http://www.w3.org/2000/svg">
  <circle cx="67.5" cy="67.5" r="67" fill="white" stroke="black"/>
  <g clip-path="url(#clip0)">
    <path fill-rule="evenodd" clip-rule="evenodd" d="M71.657 63C69.7447 60.6802 68.8163 58.3958 68.7205 56.1467C68.5237 51.4364 71.3139 47.9188 75.4563 45.3867C79.8157 42.7232 84.2962 42.0612 88.6505 40.0749C90.8251 39.0844 93.4236 37.462 97.7426 34.0051C99.1503 37.7501 94.6598 43.7694 87.3689 46.9535C89.6293 47.0394 92.0613 46.347 94.7203 44.6286C94.5387 49.3895 90.7999 52.3208 82.4898 53.4529C84.2356 54.0392 86.3245 54.0695 88.9885 53.3165C86.4304 61.8881 75.8398 55.7424 71.657 63ZM62.3429 63C64.2551 60.6802 65.1835 58.3958 65.2794 56.1467C65.4762 51.4364 62.686 47.9188 58.5436 45.3867C54.1842 42.7232 49.7037 42.0612 45.3494 40.0749C43.1747 39.0793 40.5763 37.457 36.2573 34C34.8495 37.745 39.3401 43.7644 46.631 46.9484C44.3705 47.0343 41.9386 46.3419 39.2796 44.6236C39.4612 49.3845 43.2 52.3158 51.51 53.4479C49.7643 54.0342 47.6754 54.0645 45.0113 53.3114C47.5694 61.8881 58.1601 55.7424 62.3429 63Z" fill="#100F0F"/>
  </g>
  <path d="M24.7109 94V86.8223C24.7109 86.7311 24.7109 86.5358 24.7109 86.2363C24.7174 85.9303 24.7207 85.582 24.7207 85.1914C24.7272 84.8008 24.7305 84.3939 24.7305 83.9707C24.737 83.541 24.7435 83.1536 24.75 82.8086L24.5156 82.7695L20.4824 94H18.7832L14.8867 82.877L14.6426 82.916C14.6491 83.2611 14.6556 83.6452 14.6621 84.0684C14.6686 84.485 14.6751 84.8887 14.6816 85.2793C14.6882 85.6634 14.6914 86.0052 14.6914 86.3047C14.6979 86.5977 14.7012 86.793 14.7012 86.8906V94H12.8555V80.2109H15.9316L19.6816 91.5391L23.6562 80.2109H26.6152V94H24.7109ZM40.8438 80.2109V88.8828C40.8438 89.6901 40.7135 90.4258 40.4531 91.0898C40.1992 91.7474 39.8379 92.3105 39.3691 92.7793C38.9004 93.248 38.3372 93.6126 37.6797 93.873C37.0286 94.127 36.3092 94.2539 35.5215 94.2539C34.7337 94.2539 34.0111 94.14 33.3535 93.9121C32.7025 93.6777 32.1393 93.3359 31.6641 92.8867C31.1953 92.431 30.8307 91.8646 30.5703 91.1875C30.3099 90.5039 30.1797 89.7129 30.1797 88.8145V80.2109H32.0938V88.9316C32.0938 89.6543 32.1947 90.25 32.3965 90.7188C32.6048 91.1875 32.8717 91.5553 33.1973 91.8223C33.5293 92.0892 33.9004 92.2747 34.3105 92.3789C34.7272 92.4831 35.1439 92.5352 35.5605 92.5352C36.0553 92.5352 36.4818 92.4798 36.8398 92.3691C37.1979 92.252 37.5039 92.099 37.7578 91.9102C38.0117 91.7214 38.2168 91.5033 38.373 91.2559C38.5293 91.002 38.6497 90.7415 38.7344 90.4746C38.8255 90.2012 38.8841 89.9277 38.9102 89.6543C38.9427 89.3809 38.959 89.1237 38.959 88.8828V80.2109H40.8438ZM54.7109 94H52.2109L46.8887 87.1055L46.3418 87.7891V94H44.4277V80.2109H46.3418V86.4902L47.3867 85.25L51.8203 80.2109H54.2812L48.6758 86.334L54.7109 94ZM61.1172 94H59.2129V81.9199H54.9355V80.2109H65.3945V81.9199H61.1172V94ZM67.5918 94V80.2109H69.5059V94H67.5918ZM87.8555 93.0918C87.0742 93.4889 86.332 93.7819 85.6289 93.9707C84.9258 94.1595 84.2617 94.2539 83.6367 94.2539C82.9466 94.2539 82.3151 94.1628 81.7422 93.9805C81.1758 93.7917 80.668 93.5345 80.2188 93.209C79.7695 92.8835 79.3757 92.4993 79.0371 92.0566C78.6986 91.6074 78.4186 91.1224 78.1973 90.6016C77.9759 90.0807 77.8099 89.5339 77.6992 88.9609C77.5885 88.3815 77.5332 87.7988 77.5332 87.2129C77.5332 86.6074 77.5885 86.0085 77.6992 85.416C77.8164 84.8171 77.9889 84.2474 78.2168 83.707C78.4447 83.1667 78.7279 82.6654 79.0664 82.2031C79.4115 81.7409 79.8086 81.3405 80.2578 81.002C80.707 80.6634 81.2083 80.3997 81.7617 80.2109C82.3216 80.0156 82.9336 79.918 83.5977 79.918C84.0469 79.918 84.4798 79.9701 84.8965 80.0742C85.3197 80.1784 85.7135 80.3444 86.0781 80.5723C86.4427 80.8001 86.7682 81.1029 87.0547 81.4805C87.3477 81.8516 87.582 82.304 87.7578 82.8379L86.0488 83.248C85.9512 82.929 85.8177 82.6654 85.6484 82.457C85.4857 82.2487 85.3001 82.0827 85.0918 81.959C84.8835 81.8353 84.6523 81.7474 84.3984 81.6953C84.151 81.6432 83.8939 81.6172 83.627 81.6172C82.9694 81.6172 82.3867 81.7702 81.8789 82.0762C81.3776 82.3822 80.9544 82.7923 80.6094 83.3066C80.2643 83.821 80.0039 84.4167 79.8281 85.0938C79.6523 85.7643 79.5645 86.4642 79.5645 87.1934C79.5645 87.8639 79.6491 88.5215 79.8184 89.166C79.9876 89.804 80.248 90.3737 80.5996 90.875C80.9512 91.3763 81.3939 91.7799 81.9277 92.0859C82.4616 92.3919 83.0931 92.5449 83.8223 92.5449C84.3105 92.5449 84.8346 92.4668 85.3945 92.3105C85.9544 92.1478 86.5599 91.9069 87.2109 91.5879L87.8555 93.0918ZM88.7637 93.375L93.9785 80.2109H95.8633L101.01 93.4238V94H99.1641L97.6797 90.1328H91.9863L90.4824 94H88.7637V93.375ZM93.9199 84.9375L92.6211 88.4531H97.0645L95.7949 84.9375L94.8672 82.3008L93.9199 84.9375ZM105.053 94H103.1V80.2109H110.863V81.9199H105.053V86.2949H110.512V88.0039H105.053V94ZM121.674 94H113.598V80.2109H121.586V81.9199H115.512V86.0117H121.244V87.7207H115.512V92.252H121.674V94Z" fill="black"/>
  <defs>
    <clipPath id="clip0">
      <rect width="62" height="29" fill="white" transform="translate(36 34)"/>
    </clipPath>
  </defs>
</svg>
